<?xml version="1.0" standalone="no"?><!DOCTYPE svg PUBLIC "-//W3C//DTD SVG 1.1//EN" "http://www.w3.org/Graphics/SVG/1.1/DTD/svg11.dtd"><svg height="1024" node-id="1" sillyvg="true" template-height="1024" template-width="1024" version="1.1" viewBox="0 0 1024 1024" width="1024" xmlns="http://www.w3.org/2000/svg" xmlns:xlink="http://www.w3.org/1999/xlink"><defs node-id="75"><linearGradient gradientUnits="objectBoundingBox" id="linearGradient-1" node-id="5" spreadMethod="pad" x1="0.46842068" x2="0.5" y1="-0.10080928" y2="1"><stop offset="0" stop-color="#90abff"></stop><stop offset="1" stop-color="#6489ff"></stop></linearGradient><radialGradient cx="0.5" cy="0.5226415" fx="0.5" fy="0.5226415" gradientTransform="matrix(0 0.81017 -1.427709 0 1.24618069 0.117557)" gradientUnits="objectBoundingBox" id="radialGradient-2" node-id="8" r="1.1168969" spreadMethod="pad"><stop offset="0" stop-color="#9eb1ee"></stop><stop offset="1" stop-color="#315fed"></stop></radialGradient><radialGradient cx="0.6614387" cy="0.7381093" fx="0.6614387" fy="0.7381093" gradientTransform="matrix(0.53430246 0.69597061 -0.84529337 0.43991686 0.93194916 -0.0469397)" gradientUnits="objectBoundingBox" id="radialGradient-3" node-id="11" r="1.1370955" spreadMethod="pad"><stop offset="0" stop-color="#ffffff" stop-opacity="0.5975197"></stop><stop offset="1" stop-color="#6d8cee"></stop></radialGradient><radialGradient cx="0.5" cy="0.27637437" fx="0.5" fy="0.27637437" gradientUnits="objectBoundingBox" id="radialGradient-5" node-id="16" r="0.72362566" spreadMethod="pad"><stop offset="0" stop-color="#fff5aa"></stop><stop offset="0.27121985" stop-color="#ffeb96"></stop><stop offset="1" stop-color="#ffa60f"></stop></radialGradient><radialGradient cx="0.5" cy="0.4430547" fx="0.5" fy="0.4430547" gradientTransform="matrix(-0.49036992 0.81187642 -1.09711541 -0.93931307 1.23126743 0.45328414)" gradientUnits="objectBoundingBox" id="radialGradient-6" node-id="20" r="0.4735152" spreadMethod="pad"><stop offset="0" stop-color="#ffa814"></stop><stop offset="1" stop-color="#ffdd7b" stop-opacity="0"></stop></radialGradient><radialGradient cx="0.5" cy="0.4430547" fx="0.5" fy="0.4430547" gradientTransform="matrix(-0.42683026 0.84845104 -1.10084457 -0.85153973 1.20114982 0.39610841)" gradientUnits="objectBoundingBox" id="radialGradient-8" node-id="25" r="0.43702006" spreadMethod="pad"><stop offset="0" stop-color="#ffa814"></stop><stop offset="0.0000000000000002220446" stop-color="#ffa814"></stop><stop offset="0.5701691" stop-color="#ffbc3c" stop-opacity="0.61424154"></stop><stop offset="1" stop-color="#ffdd7b" stop-opacity="0"></stop></radialGradient><linearGradient gradientUnits="objectBoundingBox" id="linearGradient-12" node-id="36" spreadMethod="pad" x1="0.5" x2="0.5" y1="0" y2="1"><stop offset="0" stop-color="#ffb1bf"></stop><stop offset="1" stop-color="#f18191"></stop></linearGradient><radialGradient cx="0.5357327" cy="0.1967172" fx="0.5357327" fy="0.1967172" gradientTransform="matrix(0.67284512 0.5993503 -1.07660305 0.79330885 0.38705379 -0.28043207)" gradientUnits="objectBoundingBox" id="radialGradient-13" node-id="39" r="0.74311304" spreadMethod="pad"><stop offset="0" stop-color="#ffc6cc"></stop><stop offset="1" stop-color="#ff96a5"></stop></radialGradient><radialGradient cx="0.71952736" cy="0.7370351" fx="0.71952736" fy="0.7370351" gradientTransform="matrix(0.71456978 0.5566607 -2.61508911 2.12552677 2.13278695 -1.23008503)" gradientUnits="objectBoundingBox" id="radialGradient-14" node-id="42" r="0.57831675" spreadMethod="pad"><stop offset="0" stop-color="#ffffff" stop-opacity="0.4965308"></stop><stop offset="1" stop-color="#ffc0c7"></stop></radialGradient><filter height="1" id="filter-4" node-id="14" width="1" x="0" y="0"><feGaussianBlur color-interpolation-filters="linearRGB" in="SourceGraphic" result="result1" stdDeviation="0 0"></feGaussianBlur></filter><filter height="1" id="filter-7" node-id="23" width="1" x="0" y="0"><feGaussianBlur color-interpolation-filters="linearRGB" in="SourceGraphic" result="result1" stdDeviation="0 0"></feGaussianBlur></filter><filter height="1" id="filter-9" node-id="30" width="1" x="0" y="0"><feGaussianBlur color-interpolation-filters="linearRGB" in="SourceGraphic" result="result1" stdDeviation="0 0"></feGaussianBlur></filter><filter height="1.973" id="filter-10" node-id="32" width="1.988" x="-0.494" y="-0.487"><feGaussianBlur color-interpolation-filters="linearRGB" in="SourceGraphic" result="result1" stdDeviation="34.1450738 34.1450738"></feGaussianBlur></filter><filter height="1.973" id="filter-11" node-id="34" width="1.988" x="-0.494" y="-0.487"><feGaussianBlur color-interpolation-filters="linearRGB" in="SourceGraphic" result="result1" stdDeviation="34.1450738 34.1450738"></feGaussianBlur></filter><filter height="1" id="filter-15" node-id="45" width="1" x="0" y="0"><feGaussianBlur color-interpolation-filters="linearRGB" in="SourceGraphic" result="result1" stdDeviation="0 0"></feGaussianBlur></filter></defs><g node-id="182"><path d="M 936.81 327.79 L 926.70 327.79 L 914.00 364.60 L 887.77 381.72 L 914.00 391.46 L 929.16 434.70 L 936.81 435.65 Z" fill="url(#linearGradient-1)" fill-rule="evenodd" group-id="1" id="路径-7" node-id="49" stroke="none" target-height="107.859985" target-width="49.039978" target-x="887.77" target-y="327.79"></path><path d="M 936.81 327.79 L 923.59 368.51 L 891.97 380.83 L 923.59 396.20 L 936.81 435.65 L 946.77 396.20 L 979.35 381.72 L 950.05 364.60 Z" fill="url(#radialGradient-2)" fill-rule="evenodd" group-id="1" id="路径-6" node-id="50" stroke="none" target-height="107.859985" target-width="87.380005" target-x="891.97" target-y="327.79"></path><g node-id="189"><path d="M 935.62 327.70 L 936.01 327.77 L 936.54 328.03 L 936.93 328.43 L 937.17 328.94 L 937.23 329.50 L 937.16 329.89 L 925.22 369.00 L 924.23 370.09 L 894.58 382.24 L 893.91 382.36 L 893.28 382.23 L 892.74 381.87 L 892.36 381.30 L 892.23 380.74 L 892.29 380.20 L 892.51 379.71 L 892.89 379.30 L 893.29 379.08 L 922.18 367.24 L 933.89 328.92 L 934.38 328.14 L 935.17 327.74 L 935.62 327.70 Z" fill="url(#radialGradient-3)" fill-rule="nonzero" filter="url(#filter-4)" group-id="1,8" id="路径-8" node-id="51" stroke="none" target-height="54.659973" target-width="45" target-x="892.23" target-y="327.7"></path></g></g><g node-id="183"><path d="M 901.43 512.18 L 901.11 527.70 L 900.20 543.08 L 898.69 558.32 L 896.58 573.45 L 893.88 588.47 L 890.59 603.40 L 886.74 618.12 L 882.32 632.64 L 877.34 646.98 L 871.80 661.14 L 865.71 675.07 L 859.09 688.73 L 851.94 702.12 L 844.26 715.25 L 836.03 728.13 L 827.32 740.66 L 818.11 752.85 L 808.40 764.70 L 798.17 776.22 L 787.42 787.42 L 776.22 798.17 L 764.70 808.40 L 752.85 818.11 L 740.66 827.32 L 728.13 836.03 L 715.25 844.26 L 702.12 851.94 L 688.73 859.09 L 675.07 865.71 L 661.14 871.80 L 646.98 877.34 L 632.64 882.32 L 618.12 886.74 L 603.40 890.59 L 588.47 893.88 L 573.45 896.58 L 558.32 898.69 L 543.08 900.20 L 527.70 901.11 L 512.18 901.43 L 496.65 901.11 L 481.28 900.20 L 466.03 898.69 L 450.90 896.58 L 435.88 893.88 L 420.95 890.59 L 406.23 886.74 L 391.71 882.32 L 377.37 877.34 L 363.22 871.80 L 349.28 865.71 L 335.63 859.09 L 322.24 851.94 L 309.10 844.26 L 296.22 836.03 L 283.69 827.32 L 271.50 818.11 L 259.65 808.40 L 248.13 798.17 L 236.93 787.42 L 226.18 776.22 L 215.95 764.70 L 206.24 752.85 L 197.03 740.66 L 188.32 728.13 L 180.09 715.25 L 172.41 702.12 L 165.26 688.73 L 158.64 675.07 L 152.55 661.14 L 147.01 646.98 L 142.03 632.64 L 137.62 618.12 L 133.76 603.40 L 130.47 588.47 L 127.77 573.45 L 125.66 558.32 L 124.15 543.08 L 123.24 527.70 L 122.92 512.18 L 123.24 496.65 L 124.15 481.28 L 125.66 466.03 L 127.77 450.90 L 130.47 435.88 L 133.76 420.95 L 137.62 406.23 L 142.03 391.71 L 147.01 377.37 L 152.55 363.22 L 158.64 349.28 L 165.26 335.63 L 172.41 322.24 L 180.09 309.10 L 188.32 296.22 L 197.03 283.69 L 206.24 271.50 L 215.95 259.65 L 226.18 248.13 L 236.93 236.93 L 248.13 226.18 L 259.65 215.95 L 271.50 206.24 L 283.69 197.03 L 296.22 188.32 L 309.10 180.09 L 322.24 172.41 L 335.63 165.26 L 349.28 158.64 L 363.22 152.55 L 377.37 147.01 L 391.71 142.03 L 406.23 137.62 L 420.95 133.76 L 435.88 130.47 L 450.90 127.77 L 466.03 125.66 L 481.28 124.15 L 496.65 123.24 L 512.18 122.92 L 527.70 123.24 L 543.08 124.15 L 558.32 125.66 L 573.45 127.77 L 588.47 130.47 L 603.40 133.76 L 618.12 137.62 L 632.64 142.03 L 646.98 147.01 L 661.14 152.55 L 675.07 158.64 L 688.73 165.26 L 702.12 172.41 L 715.25 180.09 L 728.13 188.32 L 740.66 197.03 L 752.85 206.24 L 764.70 215.95 L 776.22 226.18 L 787.42 236.93 L 798.17 248.13 L 808.40 259.65 L 818.11 271.50 L 827.32 283.69 L 836.03 296.22 L 844.26 309.10 L 851.94 322.24 L 859.09 335.63 L 865.71 349.28 L 871.80 363.22 L 877.34 377.37 L 882.32 391.71 L 886.74 406.23 L 890.59 420.95 L 893.88 435.88 L 896.58 450.90 L 898.69 466.03 L 900.20 481.28 L 901.11 496.65 L 901.43 512.18 Z" fill="url(#radialGradient-5)" fill-rule="evenodd" group-id="2" id="蒙版" node-id="53" stroke="none" target-height="778.51" target-width="778.51" target-x="122.92" target-y="122.92"></path><g node-id="190"><path d="M 755.64 214.13 L 746.08 214.52 L 740.41 215.22 L 737.37 216.03 L 735.98 216.83 L 735.49 217.75 L 735.42 219.55 L 736.12 222.85 L 738.13 228.41 L 742.14 237.18 L 749.32 245.27 L 755.29 251.21 L 760.23 255.39 L 764.29 258.16 L 767.62 259.83 L 771.31 261.14 L 775.11 262.14 L 778.93 262.75 L 782.48 262.84 L 784.79 262.58 L 786.85 262.01 L 788.70 261.16 L 790.30 259.97 L 791.63 258.37 L 792.70 256.31 L 793.28 254.06 L 793.41 251.82 L 793.07 249.56 L 792.37 247.35 L 791.35 245.10 L 789.99 242.81 L 787.60 239.54 L 784.82 236.28 L 778.93 230.19 L 775.02 226.64 L 769.97 222.80 L 763.58 218.64 L 755.64 214.13 Z" fill="url(#radialGradient-6)" fill-rule="evenodd" filter="url(#filter-7)" group-id="2,9" node-id="175" stroke="none" target-height="48.70999" target-width="57.98999" target-x="735.42" target-y="214.13"></path></g><path d="M 822.71 279.47 L 813.03 274.55 L 805.71 271.37 L 800.32 269.53 L 796.44 268.68 L 793.72 268.54 L 791.86 268.89 L 790.84 269.51 L 789.86 270.74 L 788.91 272.82 L 788.06 276.10 L 787.38 280.99 L 786.99 287.98 L 787.01 297.59 L 787.60 310.45 L 792.05 323.68 L 796.27 334.90 L 800.28 344.34 L 804.06 352.18 L 807.63 358.63 L 811.00 363.85 L 814.17 368.00 L 817.16 371.25 L 821.75 375.47 L 826.65 379.44 L 831.79 383.02 L 836.97 386.00 L 840.54 387.66 L 844.03 388.92 L 847.42 389.79 L 850.88 390.25 L 854.17 390.20 L 857.34 389.67 L 860.35 388.60 L 863.24 386.90 L 866.04 384.50 L 867.82 382.37 L 869.19 380.14 L 870.19 377.82 L 870.83 375.37 L 871.21 371.98 L 871.13 368.37 L 870.57 364.50 L 869.10 358.71 L 866.93 352.54 L 864.36 346.36 L 861.54 340.09 L 856.07 327.79 L 853.27 321.74 L 849.56 314.98 L 844.79 307.46 L 838.82 299.09 L 831.52 289.79 L 822.71 279.47 Z" fill="url(#radialGradient-8)" fill-rule="evenodd" filter="url(#filter-9)" group-id="2,10" node-id="180" stroke="none" target-height="121.70999" target-width="84.22003" target-x="786.99" target-y="268.54"></path></g><g node-id="184"><g node-id="192"><path d="M 437.07 263.17 L 441.23 268.59 L 444.87 274.22 L 447.99 280.07 L 450.62 286.15 L 452.77 292.43 L 454.43 298.86 L 455.62 305.46 L 456.33 312.24 L 456.57 319.03 L 456.35 325.90 L 455.66 332.87 L 454.49 339.95 L 452.90 346.90 L 450.86 353.85 L 448.36 360.81 L 445.39 367.80 L 442.04 374.56 L 438.26 381.23 L 434.02 387.81 L 429.31 394.32 L 424.29 400.52 L 418.83 406.53 L 412.92 412.37 L 406.55 418.03 L 399.87 423.33 L 393.09 428.13 L 386.22 432.46 L 379.24 436.33 L 372.02 439.84 L 364.80 442.87 L 357.57 445.44 L 350.33 447.56 L 342.94 449.27 L 335.65 450.52 L 328.45 451.33 L 321.32 451.69 L 314.15 451.60 L 307.17 451.07 L 300.37 450.10 L 293.72 448.69 L 287.16 446.81 L 280.88 444.49 L 274.83 441.74 L 269.02 438.53 L 263.49 434.89 L 258.27 430.79 L 253.36 426.24 L 248.74 421.19 L 244.57 415.77 L 240.94 410.14 L 237.81 404.29 L 235.18 398.20 L 233.04 391.92 L 231.37 385.50 L 230.18 378.90 L 229.47 372.12 L 229.23 365.33 L 229.46 358.46 L 230.15 351.49 L 231.31 344.41 L 232.90 337.46 L 234.94 330.51 L 237.44 323.54 L 240.42 316.56 L 243.76 309.80 L 247.55 303.13 L 251.78 296.55 L 256.49 290.04 L 261.52 283.84 L 266.97 277.83 L 272.88 271.99 L 279.25 266.33 L 285.94 261.03 L 292.71 256.23 L 299.58 251.90 L 306.56 248.03 L 313.79 244.52 L 321.01 241.49 L 328.23 238.92 L 335.47 236.80 L 342.86 235.09 L 350.15 233.83 L 357.35 233.03 L 364.48 232.67 L 371.65 232.75 L 378.63 233.29 L 385.44 234.26 L 392.08 235.67 L 398.64 237.55 L 404.93 239.86 L 410.97 242.62 L 416.78 245.82 L 422.32 249.47 L 427.54 253.57 L 432.45 258.12 L 437.07 263.17 Z" fill="#ffffff" fill-rule="evenodd" group-id="3,11" id="椭圆形" node-id="57" stroke="none" target-height="219.02" target-width="227.34001" target-x="229.23" target-y="232.67"></path></g><path d="M 413.10 287.73 L 416.89 292.69 L 420.15 297.81 L 422.90 303.11 L 425.17 308.60 L 426.97 314.29 L 428.29 320.05 L 429.13 325.91 L 429.51 331.88 L 429.42 337.85 L 428.87 343.81 L 427.85 349.77 L 426.37 355.74 L 424.46 361.56 L 422.10 367.26 L 419.28 372.86 L 415.99 378.37 L 412.33 383.58 L 408.23 388.58 L 403.66 393.37 L 398.61 397.95 L 393.22 402.13 L 387.72 405.79 L 382.08 408.97 L 376.31 411.67 L 370.32 413.95 L 364.32 415.75 L 358.29 417.08 L 352.22 417.96 L 346.08 418.38 L 340.04 418.34 L 334.08 417.85 L 328.18 416.90 L 322.37 415.50 L 316.74 413.64 L 311.30 411.34 L 306.01 408.58 L 301.00 405.40 L 296.25 401.77 L 291.78 397.67 L 287.55 393.08 L 283.77 388.12 L 280.51 383.00 L 277.76 377.70 L 275.49 372.21 L 273.69 366.52 L 272.37 360.76 L 271.52 354.90 L 271.15 348.93 L 271.24 342.96 L 271.79 337.00 L 272.80 331.04 L 274.28 325.07 L 276.20 319.25 L 278.56 313.55 L 281.37 307.95 L 284.66 302.44 L 288.32 297.23 L 292.43 292.23 L 296.99 287.44 L 302.04 282.86 L 307.43 278.68 L 312.94 275.02 L 318.57 271.85 L 324.35 269.14 L 330.34 266.86 L 336.34 265.06 L 342.37 263.73 L 348.43 262.85 L 354.57 262.43 L 360.61 262.47 L 366.57 262.96 L 372.47 263.91 L 378.29 265.31 L 383.91 267.17 L 389.36 269.47 L 394.64 272.23 L 399.66 275.41 L 404.40 279.05 L 408.88 283.14 L 413.10 287.73 Z" fill="#302838" fill-rule="evenodd" group-id="3,12" id="椭圆形" node-id="58" stroke="none" target-height="155.95001" target-width="158.36002" target-x="271.15" target-y="262.43"></path></g><g node-id="185"><g node-id="194"><path d="M 590.19 263.17 L 586.02 268.59 L 582.39 274.22 L 579.26 280.07 L 576.63 286.15 L 574.49 292.43 L 572.82 298.86 L 571.63 305.46 L 570.92 312.24 L 570.69 319.03 L 570.91 325.90 L 571.60 332.87 L 572.76 339.95 L 574.35 346.90 L 576.39 353.85 L 578.89 360.81 L 581.87 367.80 L 585.21 374.56 L 589.00 381.23 L 593.24 387.81 L 597.94 394.32 L 602.97 400.52 L 608.42 406.53 L 614.33 412.37 L 620.70 418.03 L 627.39 423.33 L 634.16 428.13 L 641.03 432.46 L 648.01 436.33 L 655.24 439.84 L 662.46 442.87 L 669.68 445.44 L 676.92 447.56 L 684.31 449.27 L 691.60 450.52 L 698.81 451.33 L 705.93 451.69 L 713.10 451.60 L 720.08 451.07 L 726.89 450.10 L 733.54 448.69 L 740.09 446.81 L 746.38 444.49 L 752.42 441.74 L 758.23 438.53 L 763.77 434.89 L 768.99 430.79 L 773.90 426.24 L 778.52 421.19 L 782.68 415.77 L 786.32 410.14 L 789.44 404.29 L 792.07 398.20 L 794.22 391.92 L 795.88 385.50 L 797.07 378.90 L 797.79 372.12 L 798.02 365.33 L 797.80 358.46 L 797.11 351.49 L 795.94 344.41 L 794.35 337.46 L 792.31 330.51 L 789.81 323.54 L 786.84 316.56 L 783.49 309.80 L 779.71 303.13 L 775.47 296.55 L 770.76 290.04 L 765.74 283.84 L 760.28 277.83 L 754.38 271.99 L 748.00 266.33 L 741.32 261.03 L 734.54 256.23 L 727.67 251.90 L 720.70 248.03 L 713.47 244.52 L 706.25 241.49 L 699.02 238.92 L 691.79 236.80 L 684.39 235.09 L 677.10 233.83 L 669.90 233.03 L 662.78 232.67 L 655.60 232.75 L 648.62 233.29 L 641.82 234.26 L 635.17 235.67 L 628.62 237.55 L 622.33 239.86 L 616.29 242.62 L 610.47 245.82 L 604.94 249.47 L 599.72 253.57 L 594.81 258.12 L 590.19 263.17 Z" fill="#ffffff" fill-rule="evenodd" group-id="4,13" id="椭圆形" node-id="60" stroke="none" target-height="219.02" target-width="227.33002" target-x="570.69" target-y="232.67"></path></g><g node-id="195"><path d="M 614.15 287.73 L 610.37 292.69 L 607.11 297.81 L 604.35 303.11 L 602.09 308.60 L 600.29 314.29 L 598.97 320.05 L 598.12 325.91 L 597.75 331.88 L 597.84 337.85 L 598.39 343.81 L 599.40 349.77 L 600.88 355.74 L 602.80 361.56 L 605.16 367.26 L 607.97 372.86 L 611.26 378.37 L 614.92 383.58 L 619.03 388.58 L 623.59 393.37 L 628.64 397.95 L 634.03 402.13 L 639.54 405.79 L 645.17 408.97 L 650.94 411.67 L 656.94 413.95 L 662.94 415.75 L 668.97 417.08 L 675.03 417.96 L 681.17 418.38 L 687.21 418.34 L 693.17 417.85 L 699.07 416.90 L 704.89 415.50 L 710.51 413.64 L 715.95 411.34 L 721.24 408.58 L 726.26 405.40 L 731.00 401.77 L 735.48 397.67 L 739.70 393.08 L 743.49 388.12 L 746.74 383.00 L 749.50 377.70 L 751.76 372.21 L 753.56 366.52 L 754.88 360.76 L 755.73 354.90 L 756.11 348.93 L 756.01 342.96 L 755.46 337.00 L 754.45 331.04 L 752.97 325.07 L 751.06 319.25 L 748.70 313.55 L 745.88 307.95 L 742.59 302.44 L 738.93 297.23 L 734.83 292.23 L 730.26 287.44 L 725.21 282.86 L 719.82 278.68 L 714.32 275.02 L 708.68 271.85 L 702.91 269.14 L 696.92 266.86 L 690.91 265.06 L 684.89 263.73 L 678.82 262.85 L 672.68 262.43 L 666.64 262.47 L 660.68 262.96 L 654.78 263.91 L 648.96 265.31 L 643.34 267.17 L 637.90 269.47 L 632.61 272.23 L 627.59 275.41 L 622.85 279.05 L 618.37 283.14 L 614.15 287.73 Z" fill="#302838" fill-rule="evenodd" group-id="4,14" id="椭圆形" node-id="61" stroke="none" target-height="155.95001" target-width="158.35999" target-x="597.75" target-y="262.43"></path></g><g node-id="196"><path d="M 655.12 287.73 L 653.36 290.20 L 652.02 292.77 L 651.08 295.46 L 650.52 298.30 L 650.34 301.20 L 650.52 304.07 L 651.09 306.94 L 652.03 309.83 L 653.32 312.56 L 654.95 315.14 L 656.95 317.57 L 659.35 319.88 L 662.04 321.84 L 664.78 323.39 L 667.60 324.55 L 670.51 325.34 L 673.53 325.77 L 676.45 325.82 L 679.31 325.51 L 682.14 324.83 L 684.84 323.79 L 687.32 322.39 L 689.62 320.62 L 691.74 318.46 L 693.50 315.99 L 694.85 313.42 L 695.79 310.73 L 696.35 307.89 L 696.53 304.99 L 696.34 302.12 L 695.78 299.25 L 694.84 296.36 L 693.55 293.62 L 691.92 291.05 L 689.92 288.61 L 687.52 286.31 L 684.83 284.35 L 682.09 282.80 L 679.27 281.64 L 676.35 280.85 L 673.34 280.42 L 670.42 280.36 L 667.55 280.68 L 664.73 281.36 L 662.03 282.40 L 659.55 283.80 L 657.25 285.57 L 655.12 287.73 Z" fill="#ffffff" fill-rule="evenodd" group-id="4,15" id="椭圆形" node-id="62" stroke="none" target-height="45.460022" target-width="46.190002" target-x="650.34" target-y="280.36"></path></g><path d="M 370.78 287.73 L 372.54 290.20 L 373.88 292.77 L 374.83 295.46 L 375.39 298.30 L 375.57 301.20 L 375.38 304.07 L 374.82 306.94 L 373.87 309.83 L 372.59 312.56 L 370.96 315.14 L 368.96 317.57 L 366.55 319.88 L 363.87 321.84 L 361.12 323.39 L 358.30 324.55 L 355.39 325.34 L 352.38 325.77 L 349.45 325.82 L 346.59 325.51 L 343.77 324.83 L 341.07 323.79 L 338.58 322.39 L 336.29 320.62 L 334.16 318.46 L 332.40 315.99 L 331.06 313.42 L 330.11 310.73 L 329.55 307.89 L 329.37 304.99 L 329.56 302.12 L 330.12 299.25 L 331.07 296.36 L 332.35 293.62 L 333.98 291.05 L 335.99 288.61 L 338.39 286.31 L 341.07 284.35 L 343.82 282.80 L 346.64 281.64 L 349.55 280.85 L 352.56 280.42 L 355.49 280.36 L 358.35 280.68 L 361.17 281.36 L 363.87 282.40 L 366.36 283.80 L 368.66 285.57 L 370.78 287.73 Z" fill="#ffffff" fill-rule="evenodd" group-id="4,16" id="椭圆形备份-2" node-id="63" stroke="none" target-height="45.460022" target-width="46.200012" target-x="329.37" target-y="280.36"></path></g><g node-id="186"><g node-id="198"><path d="M 144.99 730.88 L 156.26 726.61 L 166.73 723.26 L 176.45 720.77 L 185.48 719.05 L 193.89 718.04 L 201.71 717.69 L 209.01 717.94 L 215.82 718.77 L 222.20 720.13 L 228.19 722.02 L 233.82 724.42 L 239.13 727.34 L 244.15 730.78 L 248.90 734.77 L 253.38 739.34 L 257.62 744.53 L 262.34 751.33 L 266.66 758.49 L 270.57 766.01 L 274.08 773.93 L 277.17 782.26 L 279.85 791.03 L 282.10 800.27 L 283.91 810.01 L 285.25 820.28 L 286.12 831.10 L 286.49 842.52 L 286.32 854.57 L 285.59 867.29 L 314.13 894.85 L 319.41 884.58 L 323.94 874.61 L 327.74 864.92 L 330.87 855.49 L 333.34 846.31 L 335.20 837.34 L 336.46 828.57 L 337.14 819.99 L 337.27 811.57 L 336.85 803.28 L 335.88 795.12 L 334.37 787.07 L 332.31 779.09 L 329.70 771.19 L 326.52 763.34 L 322.94 755.93 L 319.10 749.03 L 315.00 742.62 L 310.64 736.67 L 305.90 730.92 L 301.01 725.61 L 295.98 720.71 L 290.81 716.21 L 283.54 710.60 L 276.24 705.66 L 268.90 701.35 L 261.31 697.48 L 253.94 694.20 L 246.78 691.49 L 239.46 689.15 L 232.66 687.34 L 226.33 686.01 L 219.90 685.02 L 214.30 684.48 L 209.43 684.32 L 201.94 684.61 L 193.38 685.54 L 183.63 687.20 L 172.56 689.70 L 160.02 693.15 L 145.88 697.67 L 129.99 703.39 L 144.99 730.88 Z" fill="#fa8102" fill-rule="evenodd" filter="url(#filter-10)" group-id="5,17" id="路径-3" node-id="65" stroke="none" target-height="210.52997" target-width="207.27998" target-x="129.99" target-y="684.32"></path></g><g node-id="199"><path d="M 875.44 730.88 L 864.17 726.61 L 853.70 723.26 L 843.98 720.77 L 834.94 719.05 L 826.54 718.04 L 818.72 717.69 L 811.42 717.94 L 804.61 718.77 L 798.23 720.13 L 792.24 722.02 L 786.61 724.42 L 781.29 727.34 L 776.28 730.78 L 771.53 734.77 L 767.05 739.34 L 762.81 744.53 L 758.09 751.33 L 753.77 758.49 L 749.86 766.01 L 746.35 773.93 L 743.26 782.26 L 740.58 791.03 L 738.33 800.27 L 736.52 810.01 L 735.18 820.28 L 734.31 831.10 L 733.94 842.52 L 734.11 854.57 L 734.84 867.29 L 706.29 894.85 L 701.01 884.58 L 696.49 874.61 L 692.69 864.92 L 689.56 855.49 L 687.09 846.31 L 685.23 837.34 L 683.97 828.57 L 683.28 819.99 L 683.16 811.57 L 683.58 803.28 L 684.55 795.12 L 686.06 787.07 L 688.12 779.09 L 690.73 771.19 L 693.90 763.34 L 697.49 755.93 L 701.33 749.03 L 705.43 742.62 L 709.78 736.67 L 714.53 730.92 L 719.42 725.61 L 724.44 720.71 L 729.62 716.21 L 736.89 710.60 L 744.19 705.66 L 751.53 701.35 L 759.12 697.48 L 766.49 694.20 L 773.65 691.49 L 780.97 689.15 L 787.77 687.34 L 794.10 686.01 L 800.53 685.02 L 806.13 684.48 L 811.00 684.32 L 818.49 684.61 L 827.05 685.54 L 836.80 687.20 L 847.87 689.70 L 860.41 693.15 L 874.55 697.67 L 890.44 703.39 L 875.44 730.88 Z" fill="#fa8102" fill-rule="evenodd" filter="url(#filter-11)" group-id="5,18" id="路径-3备份" node-id="66" stroke="none" target-height="210.52997" target-width="207.28003" target-x="683.16" target-y="684.32"></path></g><path d="M 368.77 798.99 L 368.44 808.45 L 367.51 817.63 L 365.99 826.58 L 363.89 835.30 L 361.20 843.91 L 358.02 852.20 L 354.32 860.20 L 350.12 867.93 L 345.42 875.38 L 340.30 882.47 L 334.75 889.19 L 328.76 895.57 L 322.38 901.56 L 315.66 907.11 L 308.58 912.23 L 301.12 916.93 L 293.39 921.13 L 285.39 924.82 L 277.10 928.01 L 268.49 930.70 L 259.77 932.80 L 250.82 934.31 L 241.64 935.24 L 232.19 935.58 L 222.74 935.24 L 213.55 934.31 L 204.61 932.80 L 195.88 930.70 L 187.27 928.01 L 178.98 924.82 L 170.98 921.13 L 163.25 916.93 L 155.80 912.23 L 148.72 907.11 L 141.99 901.56 L 135.61 895.57 L 129.62 889.19 L 124.07 882.47 L 118.95 875.38 L 114.25 867.93 L 110.05 860.20 L 106.36 852.20 L 103.17 843.91 L 100.48 835.30 L 98.38 826.58 L 96.87 817.63 L 95.94 808.45 L 95.61 798.99 L 95.94 789.54 L 96.87 780.36 L 98.38 771.41 L 100.48 762.69 L 103.17 754.08 L 106.36 745.79 L 110.05 737.79 L 114.25 730.06 L 118.95 722.61 L 124.07 715.52 L 129.62 708.80 L 135.61 702.42 L 141.99 696.43 L 148.72 690.88 L 155.80 685.76 L 163.25 681.06 L 170.98 676.86 L 178.98 673.17 L 187.27 669.98 L 195.88 667.29 L 204.61 665.19 L 213.55 663.68 L 222.74 662.75 L 232.19 662.41 L 241.64 662.75 L 250.82 663.68 L 259.77 665.19 L 268.49 667.29 L 277.10 669.98 L 285.39 673.17 L 293.39 676.86 L 301.12 681.06 L 308.58 685.76 L 315.66 690.88 L 322.38 696.43 L 328.76 702.42 L 334.75 708.80 L 340.30 715.52 L 345.42 722.61 L 350.12 730.06 L 354.32 737.79 L 358.02 745.79 L 361.20 754.08 L 363.89 762.69 L 365.99 771.41 L 367.51 780.36 L 368.44 789.54 L 368.77 798.99 Z" fill="url(#radialGradient-5)" fill-rule="evenodd" group-id="5" id="椭圆形" node-id="67" stroke="none" target-height="273.17004" target-width="273.15997" target-x="95.61" target-y="662.41"></path><path d="M 928.75 798.99 L 928.41 808.45 L 927.49 817.63 L 925.97 826.58 L 923.87 835.30 L 921.18 843.91 L 917.99 852.20 L 914.30 860.20 L 910.10 867.93 L 905.40 875.38 L 900.28 882.47 L 894.73 889.19 L 888.74 895.57 L 882.36 901.56 L 875.64 907.11 L 868.55 912.23 L 861.10 916.93 L 853.37 921.13 L 845.37 924.82 L 837.08 928.01 L 828.47 930.70 L 819.75 932.80 L 810.80 934.31 L 801.62 935.24 L 792.17 935.58 L 782.72 935.24 L 773.53 934.31 L 764.58 932.80 L 755.86 930.70 L 747.25 928.01 L 738.96 924.82 L 730.96 921.13 L 723.23 916.93 L 715.78 912.23 L 708.70 907.11 L 701.97 901.56 L 695.59 895.57 L 689.60 889.19 L 684.05 882.47 L 678.93 875.38 L 674.23 867.93 L 670.03 860.20 L 666.34 852.20 L 663.15 843.91 L 660.46 835.30 L 658.36 826.58 L 656.85 817.63 L 655.92 808.45 L 655.59 798.99 L 655.92 789.54 L 656.85 780.36 L 658.36 771.41 L 660.46 762.69 L 663.15 754.08 L 666.34 745.79 L 670.03 737.79 L 674.23 730.06 L 678.93 722.61 L 684.05 715.52 L 689.60 708.80 L 695.59 702.42 L 701.97 696.43 L 708.70 690.88 L 715.78 685.76 L 723.23 681.06 L 730.96 676.86 L 738.96 673.17 L 747.25 669.98 L 755.86 667.29 L 764.58 665.19 L 773.53 663.68 L 782.72 662.75 L 792.17 662.41 L 801.62 662.75 L 810.80 663.68 L 819.75 665.19 L 828.47 667.29 L 837.08 669.98 L 845.37 673.17 L 853.37 676.86 L 861.10 681.06 L 868.55 685.76 L 875.64 690.88 L 882.36 696.43 L 888.74 702.42 L 894.73 708.80 L 900.28 715.52 L 905.40 722.61 L 910.10 730.06 L 914.30 737.79 L 917.99 745.79 L 921.18 754.08 L 923.87 762.69 L 925.97 771.41 L 927.49 780.36 L 928.41 789.54 L 928.75 798.99 Z" fill="url(#radialGradient-5)" fill-rule="evenodd" group-id="5" id="椭圆形备份" node-id="68" stroke="none" target-height="273.17004" target-width="273.15997" target-x="655.59" target-y="662.41"></path></g><g node-id="187"><path d="M 512.18 471.96 L 519.44 471.65 L 526.18 470.76 L 532.46 469.32 L 538.31 467.37 L 543.78 464.89 L 549.01 461.84 L 553.88 458.27 L 558.40 454.17 L 562.59 449.50 L 566.47 444.23 L 569.76 438.77 L 572.75 432.75 L 575.42 426.11 L 577.75 418.82 L 579.72 410.80 L 580.01 408.31 L 579.87 405.95 L 579.32 403.67 L 578.39 401.51 L 577.14 399.58 L 575.55 397.86 L 573.68 396.43 L 571.58 395.35 L 569.19 394.61 L 566.70 394.32 L 564.34 394.45 L 562.06 395.00 L 559.90 395.94 L 557.97 397.19 L 556.25 398.78 L 554.82 400.64 L 553.74 402.75 L 553.00 405.14 L 551.28 412.11 L 549.31 418.11 L 547.12 423.26 L 544.74 427.64 L 542.42 431.05 L 539.92 434.01 L 537.24 436.56 L 534.37 438.73 L 531.31 440.54 L 527.23 442.30 L 522.72 443.59 L 517.73 444.38 L 512.18 444.65 L 506.62 444.38 L 501.61 443.58 L 497.09 442.29 L 493.00 440.52 L 489.93 438.71 L 487.05 436.54 L 484.36 433.98 L 481.84 431.02 L 479.50 427.60 L 477.10 423.20 L 474.89 418.04 L 472.90 412.02 L 471.16 405.04 L 470.41 402.65 L 469.33 400.55 L 467.90 398.69 L 466.17 397.10 L 464.24 395.85 L 462.08 394.93 L 459.80 394.39 L 457.43 394.26 L 454.95 394.55 L 452.56 395.30 L 450.45 396.39 L 448.60 397.82 L 447.01 399.55 L 445.76 401.48 L 444.83 403.64 L 444.29 405.92 L 444.16 408.28 L 444.46 410.77 L 446.45 418.79 L 448.81 426.09 L 451.49 432.73 L 454.50 438.76 L 457.81 444.22 L 461.70 449.49 L 465.90 454.16 L 470.44 458.27 L 475.31 461.84 L 480.55 464.89 L 486.03 467.36 L 491.89 469.32 L 498.17 470.76 L 504.91 471.65 L 512.18 471.96 Z" fill="#672900" fill-rule="nonzero" group-id="6" id="路径-5" node-id="69" stroke="none" target-height="77.69998" target-width="135.85" target-x="444.16" target-y="394.26"></path></g><g node-id="188"><path d="M 856.07 143.52 L 839.21 143.52 L 818.05 204.87 L 774.33 233.39 L 818.05 249.63 L 843.31 321.69 L 856.07 323.27 Z" fill="url(#linearGradient-12)" fill-rule="evenodd" group-id="7" id="路径-7" node-id="71" stroke="none" target-height="179.74998" target-width="81.73999" target-x="774.33" target-y="143.52"></path><path d="M 856.07 143.52 L 834.02 211.38 L 781.33 231.92 L 834.02 257.53 L 856.07 323.27 L 872.67 257.53 L 926.97 233.39 L 878.12 204.87 Z" fill="url(#radialGradient-13)" fill-rule="evenodd" group-id="7" id="路径-6" node-id="72" stroke="none" target-height="179.74998" target-width="145.63995" target-x="781.33" target-y="143.52"></path><g node-id="200"><path d="M 856.83 143.63 L 857.19 143.69 L 857.91 144.20 L 858.17 145.03 L 858.11 145.39 L 837.98 213.25 L 837.19 214.13 L 787.77 234.37 L 787.24 234.47 L 786.73 234.36 L 786.30 234.08 L 785.99 233.62 L 785.94 232.74 L 786.42 232.02 L 786.74 231.84 L 835.55 211.84 L 855.49 144.61 L 855.87 144.00 L 856.48 143.67 L 856.83 143.63 Z" fill="url(#radialGradient-14)" fill-rule="nonzero" filter="url(#filter-15)" group-id="7,19" id="路径-8" node-id="73" stroke="none" target-height="90.84" target-width="72.22998" target-x="785.94" target-y="143.63"></path></g></g></svg>